<svg width="18" height="18" viewBox="0 0 19 16" xmlns="http://www.w3.org/2000/svg">
  <!-- 相机机身（带圆角） -->
  <path d="M3 4 C2 4 1 5 1 6 V14 C1 15.1 1.9 16 3 16 H16 C17.1 16 18 15.1 18 14 V6 C18 5 17 4 16 4 H13.5 L12.3 1.5 C12.1 1 11.6 0.5 11 0.5 H8 C7.4 0.5 6.9 1 6.7 1.5 L5.5 4 H3 Z" fill="#0099FF"></path>

  <!-- 镜头边框（白色） -->
  <circle cx="9.5" cy="10" r="4" fill="white"></circle>

  <!-- 镜头内部（绿色） -->
  <circle cx="9.5" cy="10" r="2.8" fill="#67C23A"></circle>

  <!-- 镜头高光 -->
  <circle cx="8.5" cy="9" r="0.7" fill="white"></circle>

  <!-- 闪光灯（绿色小圆） -->
  <circle cx="15.5" cy="6" r="1.2" fill="#67C23A"></circle>
</svg>
